<?xml version="1.0" encoding="UTF-8" standalone="no"?>
<svg
   width="1800"
   height="480"
   viewBox="0 0 1800 480"
   fill="none"
   version="1.1"
   id="svg5"
   xmlns="http://www.w3.org/2000/svg"
   xmlns:svg="http://www.w3.org/2000/svg"
   xmlns:rdf="http://www.w3.org/1999/02/22-rdf-syntax-ns#"
   xmlns:cc="http://creativecommons.org/ns#"
   xmlns:dc="http://purl.org/dc/elements/1.1/">
  <title
     id="title1">FreeCAD-wordmark</title>
  <defs
     id="defs5" />
  <path
     d="M503.256 353V126.866H618.006V147.368H525.9V229.07H614.64V249.572H525.9V353H503.256ZM644.508 353V185.618H667.152V209.486C676.026 191.126 690.408 182.864 714.582 181.64V203.978C683.064 207.038 667.152 224.174 667.152 255.386V353H644.508ZM895.57 276.806H744.1C745.936 309.854 774.7 336.17 809.278 336.17C834.676 336.17 858.238 320.87 867.724 297.92H891.286C879.046 333.11 846.304 356.978 809.89 356.978C760.318 356.978 721.456 318.116 721.456 268.544C721.456 219.89 759.706 181.64 808.054 181.64C841.102 181.64 870.784 199.082 885.472 227.234C892.816 241.31 895.57 254.468 895.57 276.806ZM744.712 256.304H872.926C865.276 222.95 840.49 202.448 808.054 202.448C776.23 202.448 750.832 224.174 744.712 256.304ZM1094.59 276.806H943.119C944.955 309.854 973.719 336.17 1008.3 336.17C1033.7 336.17 1057.26 320.87 1066.74 297.92H1090.31C1078.07 333.11 1045.32 356.978 1008.91 356.978C959.337 356.978 920.475 318.116 920.475 268.544C920.475 219.89 958.725 181.64 1007.07 181.64C1040.12 181.64 1069.8 199.082 1084.49 227.234C1091.84 241.31 1094.59 254.468 1094.59 276.806ZM943.731 256.304H1071.95C1064.3 222.95 1039.51 202.448 1007.07 202.448C975.249 202.448 949.851 224.174 943.731 256.304ZM1291.77 289.964H1341.04C1323.29 331.274 1283.2 356.978 1236.69 356.978C1170.6 356.978 1117.66 304.652 1117.66 239.168C1117.66 175.214 1169.98 122.888 1233.94 122.888C1262.4 122.888 1289.63 132.68 1310.74 150.428C1325.13 162.668 1332.47 172.766 1341.04 191.738H1294.22C1278.92 171.848 1261.17 163.28 1234.86 163.28C1211.6 163.28 1192.32 171.848 1178.55 188.066C1166.92 201.53 1159.89 221.114 1159.89 239.474C1159.89 281.702 1193.85 316.586 1235.77 316.586C1257.5 316.586 1273.11 309.242 1291.77 289.964ZM1345.76 353L1440 126.866H1473.05L1567.91 353H1521.71L1497.53 294.554H1417.05L1391.96 353H1345.76ZM1432.35 254.468H1480.7L1456.53 185.924L1432.35 254.468ZM1591.85 353V126.866H1643.57C1680.59 126.866 1707.83 132.68 1726.19 144.614C1756.17 163.892 1773 198.47 1773 240.392C1773 287.21 1751.58 324.542 1715.78 341.372C1697.73 349.634 1677.84 353 1644.48 353H1591.85ZM1633.77 312.914H1642.95C1668.05 312.914 1685.49 309.548 1698.03 302.816C1718.23 291.8 1730.78 267.626 1730.78 240.392C1730.78 210.71 1717.01 186.23 1694.67 175.214C1681.82 169.094 1668.05 166.952 1642.04 166.952H1633.77V312.914Z"
     fill="#212529"
     id="path5"
     style="stroke:none" />
  <metadata
     id="metadata1">
    <rdf:RDF>
      <cc:Work
         rdf:about="">
        <dc:title>FreeCAD-wordmark</dc:title>
        <dc:date>2024-06-01</dc:date>
        <dc:creator>
          <cc:Agent>
            <dc:title>Sebastian Tabares Amaya (sytabaresa), Max Wilfinger (maxwxyz)</dc:title>
          </cc:Agent>
        </dc:creator>
        <dc:publisher>
          <cc:Agent>
            <dc:title>The FreeCAD project association AISBL (FPA)</dc:title>
          </cc:Agent>
        </dc:publisher>
      </cc:Work>
    </rdf:RDF>
  </metadata>
  <g
     id="g1"
     style="stroke:none">
    <path
       d="m 400,80 -80,80 H 160 v 60 h 80 v 80 h -80 v 100 l -80,80 h 81.0076 c 6.0652,0 11.4378,-3.9054 13.3118,-9.6738 l 14.4798,-44.5656 c 1.384,-4.2618 4.7298,-7.5966 8.9916,-8.9814 l 11.1312,-3.6172 c 4.262,-1.386 8.9314,-0.65 12.5572,1.984 l 37.8994,27.5434 c 4.9066,3.5646 11.5574,3.5646 16.464,0 l 33.972,-24.691 c 4.9072,-3.5648 6.9592,-9.8788 5.085,-15.6474 l -14.4798,-44.5658 c -1.386,-4.262 -0.64,-8.9314 1.994,-12.5572 l 6.8834,-9.4672 c 2.6338,-3.6254 6.8358,-5.777 11.317,-5.7774 l 46.86,0.0102 c 6.0656,2e-4 11.4378,-3.9154 13.3118,-9.684 l 12.9812,-39.9354 c 1.874,-5.7684 -0.18,-12.093 -5.085,-15.658 L 350.7724,237.173 c -3.6256,-2.6342 -5.767,-6.8356 -5.767,-11.3172 V 214.146 c 4e-4,-4.4814 2.1412,-8.6936 5.767,-11.3274 l 43.4598,-31.5742 C 397.8584,168.6106 400,164.3988 400,159.9174 Z"
       style="fill:#418fde;fill-opacity:1;fill-rule:evenodd;stroke:none;stroke-width:2.64566;stroke-linecap:square"
       id="path8-4-4" />
    <path
       id="path7-7-2"
       style="display:inline;fill:#ff585d;fill-opacity:1;fill-rule:evenodd;stroke:none;stroke-width:2.64566;stroke-linecap:square"
       d="m 320,0 -80,80 h 80 v 80 L 400,80 V 0 Z M 80,320 0,400 v 80 h 80 l 80,-80 H 80 Z" />
    <path
       d="M 80,0 0,80 V 400 L 80,320 V 80 H 240 L 320,0 Z"
       style="fill:#cb333b;fill-rule:evenodd;stroke:none;stroke-width:2.64566;stroke-linecap:square"
       id="path3-1-7" />
    <path
       d="m 80,400 h 80 V 300 h 80 V 220 H 160 V 160 H 320 V 80 H 80 Z"
       style="fill:#ffffff;fill-opacity:1;fill-rule:evenodd;stroke:none;stroke-width:2.64566;stroke-linecap:square"
       id="path9-4-0" />
  </g>
</svg>
