<?xml version="1.0" encoding="UTF-8" standalone="no"?>
<svg
   width="400"
   height="480"
   viewBox="0 0 400 480"
   fill="none"
   version="1.1"
   id="svg4"
   xmlns="http://www.w3.org/2000/svg"
   xmlns:svg="http://www.w3.org/2000/svg"
   xmlns:rdf="http://www.w3.org/1999/02/22-rdf-syntax-ns#"
   xmlns:cc="http://creativecommons.org/ns#"
   xmlns:dc="http://purl.org/dc/elements/1.1/">
  <title
     id="title4">FreeCAD Symbol</title>
  <defs
     id="defs4">
    <clipPath
       id="clip0_194_9881">
      <rect
         width="400"
         height="480"
         fill="white"
         id="rect4" />
    </clipPath>
  </defs>
  <path
     d="m 400,79.994846 -79.99484,80.005164 h -160 v 59.99611 H 240 v 80.00518 h -79.99484 v 99.99356 L 79.999994,480 h 81.007686 c 6.0652,-2e-5 11.43766,-3.90538 13.3118,-9.6738 l 14.4797,-44.5656 c 1.385,-4.26174 4.72978,-7.59666 8.99166,-8.9813 l 11.13106,-3.61736 c 4.26216,-1.3852 8.93154,-0.6496 12.55732,1.9844 l 37.89936,27.54346 c 4.90662,3.56464 11.5574,3.56458 16.46406,0 l 33.97196,-24.69094 c 4.90726,-3.56484 6.95926,-9.87896 5.08494,-15.64756 l -14.47968,-44.5656 c -1.3852,-4.26218 -0.6394,-8.9315 1.9948,-12.55732 l 6.88328,-9.4671 c 2.63394,-3.62552 6.8358,-5.77712 11.3171,-5.7774 l 46.86002,0.0102 c 6.06556,2e-4 11.4377,-3.9154 13.3118,-9.68414 l 12.98108,-39.93542 c 1.874,-5.76826 -0.178,-12.093 -5.08494,-15.6579 l -37.90972,-27.5433 c -3.62566,-2.63418 -5.76716,-6.83554 -5.76706,-11.31708 V 214.1464 c 3.8e-4,-4.48144 2.14124,-8.69362 5.76706,-11.32744 l 43.45964,-31.57421 c 3.62556,-2.63412 5.76706,-6.84599 5.76708,-11.32743 z"
     style="fill:#418fde;fill-opacity:1;fill-rule:evenodd;stroke:none;stroke-width:2.64566;stroke-linecap:square"
     id="path8" />
  <path
     id="path7"
     style="display:inline;fill:#ff585d;fill-opacity:1;fill-rule:evenodd;stroke:none;stroke-width:2.64566;stroke-linecap:square"
     d="m 320,0 -80,80 h 80 v 80 L 400,80 V 0 Z M 80,320 0,400 v 80 h 80 l 80,-80 H 80 Z" />
  <path
     d="M 80,0 0,80 V 400 L 80,320 V 80 H 240 L 320,0 Z"
     style="fill:#cb333b;fill-rule:evenodd;stroke-width:2.64566;stroke-linecap:square"
     id="path3" />
  <path
     d="M 79.999994,399.99486 H 160.00516 V 300.0013 H 240 v -80.00518 h -79.99484 v -59.99611 h 160 V 79.994846 H 79.999994 Z"
     style="fill:#fefefe;fill-opacity:1;fill-rule:evenodd;stroke:none;stroke-width:2.64566;stroke-linecap:square"
     id="path9" />
  <metadata
     id="metadata4">
    <rdf:RDF>
      <cc:Work
         rdf:about="">
        <dc:title>FreeCAD Symbol</dc:title>
        <dc:creator>
          <cc:Agent>
            <dc:title>Max Wilfinger (maxwxyz)</dc:title>
          </cc:Agent>
        </dc:creator>
        <dc:publisher>
          <cc:Agent>
            <dc:title>The FreeCAD project association AISBL (FPA)</dc:title>
          </cc:Agent>
        </dc:publisher>
      </cc:Work>
    </rdf:RDF>
  </metadata>
</svg>
